<?xml version="1.0" encoding="utf-8"?>
<!-- Generator: Adobe Illustrator 27.4.0, SVG Export Plug-In . SVG Version: 6.00 Build 0)  -->
<svg version="1.1" id="Layer_2_00000080175078657877212610000007255987267560798121_"
	 xmlns="http://www.w3.org/2000/svg" xmlns:xlink="http://www.w3.org/1999/xlink" x="0px" y="0px" viewBox="0 0 3011.9 2261.6"
	 style="enable-background:new 0 0 3011.9 2261.6;" xml:space="preserve">
<style type="text/css">
	.st0{fill-rule:evenodd;clip-rule:evenodd;}
	.st1{fill-rule:evenodd;clip-rule:evenodd;fill:#FFFFFF;}
</style>
<path class="st0" d="M2088.2,1475.2c-5.8-32.3-37.9-56.2-9.3-67.5c28.9-11.4,77.1-0.2,98.9-40.2c-28.7,2.7-37.6-26.4-9.6-43
	c22.4-13.2,46.1-15.8,55.3-45.9c-9.5-1.1-6.6-19.2-0.9-43.5c6.8-22.9,11.4-47.7,13.7-74.2c-38.4,37.8-92,62.7-146.4,63.6
	c-100.4,1.6-108.9-110.2,61.3-125c113.1-9.9,214.5,8.4,323.5,24.4c117.7,17.3,222.1,68.7,343.1-54c65.6-66.5,95.4-49.7,137-61.9
	c55-16.2,70.7-78.9,45.1-149.5c-28.5,47.9-79.8,25.7-71.4-27.2c9.4-59.3,89.6-195.6-6.8-213.4c-67.7-12.5-157.5-102.7-217.2-141.8
	c-67.5-44.3-147.7-79.6-211.2-115.5C2299.9,251.1,2270.6,160.6,2346.4,0c-60.2,28.3-97.7,70.9-146.1,113.9
	c-15.9,14.1-33.6,8.1-31.7-19c-47.3,48.8,13.6,61.3-43.3,150.8c-29.4,46.2,5.8,116.7,22.8,161.8c21.5,56.9-28.6,67.3-57.3,29.8
	c-0.2,71.3,41.7,102.2,101,115c90.4,19.6,68.7,93,8.2,76.7c-184.9-50-333.9-14.3-473.5,107c-8-3.7-16.3-6.7-24.8-9
	c-59.3-54.5-116.8-66.9-181.7-67.9c23.3,39,20.1,102.4-15,134c-35-31.6-38.3-95-15-134c-64.9,1-122.4,13.5-181.7,67.9
	c-8.5,2.3-16.8,5.3-24.8,9c-139.6-121.3-288.6-157-473.5-107c-60.4,16.4-82.2-57,8.2-76.7c59.3-12.9,101.2-43.8,101-115
	c-28.7,37.5-78.8,27.1-57.3-29.8c17-45,52.3-115.5,22.8-161.8c-57-89.5,3.9-102.1-43.3-150.8c1.9,27-15.8,33.1-31.7,19
	C761.6,71,724.1,28.3,663.9,0c75.8,160.6,46.5,251.1-146.9,360.8c-63.5,36-136.3,71.2-203.8,115.5C251.3,516.9,154.6,606,88.6,618.2
	c-96.4,17.8-16.2,154-6.8,213.4c8.4,52.9-42.9,75-71.4,27.2c-25.6,70.6-2.1,128.7,52.8,144.9c41.7,12.3,71.5-4.6,137,61.9
	c120.9,122.7,217.6,75.9,335.4,58.6c109-16,210.5-34.3,323.5-24.4c170.3,14.8,161.7,126.7,61.3,125c-54.3-0.9-107.9-25.8-146.4-63.6
	c2.4,26.5,6.9,51.3,13.7,74.2c5.6,24.3,8.5,42.4-1,43.5c9.2,30,32.9,32.6,55.3,45.9c28,16.5,19,45.7-9.6,43
	c21.8,40,69.9,28.8,98.8,40.2c28.6,11.3-3.5,35.2-9.3,67.5c59.2-6.7,155.5-10.8,210.6,18.7c73,39.2,28,127.7-36.1,110
	c-49.2-13.6-90.7-57.9-112.8-102.2c-34.3,51,3.1,99.1-31.3,146.8c-27.5,38,32.5,69,57.6,104.9c25.8,37,1.1,75.8-45.5,64.4
	c14.7,114.8,210.4,49.1,338.7,124.2c-22.4-71.1-12.1-100.8,12.6-95c-18.8,15.1-7.3,44.1,16.5,51.2c-5.6-15,22.5-23.4,44.9,3.9
	c37,48.4-0.1,58.6,16.2,108.4c9.4,28.6-6.1,63.3-36.3,52c18.9,44.2,94-5.1,117.3,72.9c11.7,43.2,21.6,86.4,30.7,126.1
	c9.1-39.8,19-82.9,30.7-126.1c23.3-77.9,98.4-28.6,117.3-72.9c-30.2,11.4-45.7-23.3-36.3-52c16.3-49.8-20.8-60,16.2-108.4
	c22.4-27.3,50.6-18.9,44.9-3.9c23.9-7.1,35.3-36.1,16.5-51.2c24.7-5.8,35,23.9,12.6,95c128.3-75.1,324-9.4,338.7-124.2
	c-46.6,11.4-71.3-27.4-45.5-64.4c25.1-35.9,85.1-66.9,57.6-104.9c-34.5-47.7,3-95.8-31.3-146.8c-22.2,44.2-63.7,88.6-112.8,102.2
	c-64.1,17.6-109.1-70.8-36.1-110C1932.7,1464.4,2029.1,1468.6,2088.2,1475.2L2088.2,1475.2L2088.2,1475.2z"/>
<path class="st1" d="M1896.5,1401.2c70.4,5.7,107.1,16.7,164,55.4c-55.9-15.7-141-22.9-194.6-0.4L1896.5,1401.2L1896.5,1401.2
	L1896.5,1401.2z"/>
<path class="st1" d="M1113.7,1401.2c-70.4,5.7-107.1,16.7-164,55.4c55.9-15.7,141-22.9,194.6-0.4L1113.7,1401.2L1113.7,1401.2
	L1113.7,1401.2z"/>
<path class="st1" d="M1868.9,1120.8c0,0,4.1,64.9,112.5,84.4c0,0-82.7,1.8-137.9-41.6c-55.2-43.5-43.9-69.6-43.9-69.6
	S1861.7,1085.3,1868.9,1120.8L1868.9,1120.8z"/>
<path class="st1" d="M1141.4,1120.8c0,0-4.1,64.9-112.5,84.4c0,0,82.7,1.8,137.9-41.6c55.2-43.5,43.9-69.6,43.9-69.6
	S1148.5,1085.3,1141.4,1120.8L1141.4,1120.8z"/>
<path class="st1" d="M1505.1,2222.1c31.3-394.1,308.9-620.9,253.8-339.2c0,0,239.7-81.1,243.7-298.4c-24.7,26-49.2,41.6-72.3,49.2
	c-8.1,26.9-27.9,39.4-51.6,46.5c31.5,42,2.6,104.8-66.7,109.2c61-53.7,2.8-146.9-10.4-229.3l0,0c-9.8-58.2,37.1-126.8,186.7-125.3
	c-176.1-104.3-196.6,67.8-290.8,27.7c19.2,0,42.8-8.9,49.7-28.5c-16.1-13.5-24.1-35.7-6.8-52.4c19.1-18.4,47.5-2.9,43.2,18.1
	c16.9-8.9,25.2-21.3,31.2-32.3c15.1-27.6,36.8-42.5,59.4-35c27.4,9.1,42.2,31.3,77.9,35.6c115.5,8.5,206.7-46.2,253.7-152.6
	c-124.1,64.2-322.7,48.6-373.6-110.1c9.4,14.6,27.7,33.3,45.4,37.1c17.2,3.7,11.1-3.8,17.9-9.5c10.2-8.5,35,16.1,15.5,26.8
	c10.9,6.7,24.2,10.2,37.5,9c-11-31.3-12.3-71.7-0.2-121.5c6.5,28.1,15.4,50.6,26.9,68.6c44.9-30,95.2-45.9,148.8-53.1
	c2.5-19.9,7.6-39.2,15.8-55.3c0.7,17.5,3.4,35.4,7.8,52.8c39.1-3.4,79.6-2.8,120.7,0c4.9-22.8,13.9-43,24.6-55.7
	c-4,18.5-3.8,38.2-0.7,57.6c44.6,3.8,89.7,9.6,134.4,15c2.8-16.3,8.7-31.9,18.5-45.8c-0.6,17.3,0.2,33.3,2.6,48.2
	c412.2,90.9,589.9-302,263.9-545.7c-181-135.3-471.9-190.9-426.4-426c-52.1,46.7-96.1,106.7-104.4,177.9
	c-26.4,225.9,316.4,319.7,325.1,491.5c-107.1-31.5-207-80.8-316.2-110.4c-184.1-49.8-323.9-8.7-458.2,117.6
	c-14.6-11.1-31.6-18.4-49.6-21.8c0,0-54.1-57.6-131-59.1c18.5,76.4-10.4,153.4-45.8,159.9c-35.4-6.5-64.3-83.6-45.8-159.9
	c-76.9,1.5-131,59.1-131,59.1c-18,3.4-35,10.7-49.6,21.8c-134.4-126.3-274.1-167.4-458.2-117.6C711.3,696.7,611.4,746,504.3,777.5
	C513,605.6,855.8,511.9,829.4,286C821,214.7,777,154.8,725,108C770.4,343,479.5,398.7,298.5,534
	c-325.9,243.7-148.3,636.5,263.9,545.7c2.4-14.9,3.2-30.9,2.6-48.2c9.8,13.9,15.7,29.5,18.5,45.8c44.7-5.4,89.8-11.2,134.3-15
	c3.1-19.4,3.3-39.1-0.7-57.5c10.7,12.8,19.7,32.9,24.6,55.7c41.2-2.8,81.7-3.4,120.7,0c4.4-17.3,7.2-35.2,7.8-52.8
	c8.1,16.1,13.3,35.4,15.8,55.3c53.6,7.2,103.9,23.2,148.8,53.1c11.5-18,20.4-40.5,26.9-68.6c12.1,49.8,10.9,90.2-0.2,121.5
	c13.3,1.2,26.6-2.3,37.5-9c-19.6-10.7,5.3-35.4,15.5-26.8c6.8,5.7,0.7,13.2,17.9,9.5c17.8-3.8,36-22.5,45.4-37.1
	c-50.9,158.6-249.5,174.2-373.6,110.1c47,106.4,138.2,161.1,253.7,152.6c35.7-4.3,50.5-26.5,77.9-35.6c22.6-7.5,44.3,7.3,59.4,35
	c6.1,11,14.3,23.5,31.2,32.3c-4.3-21,24.2-36.5,43.3-18.1c17.3,16.7,9.3,38.9-6.8,52.4c6.9,19.6,30.4,28.5,49.7,28.5
	c-94.2,40-114.7-132-290.8-27.7c149.6-1.4,196.5,67.2,186.7,125.3l0,0c-13.2,82.3-71.4,175.6-10.4,229.3
	c-69.2-4.5-98.2-67.3-66.7-109.2c-23.7-7.1-43.5-19.6-51.6-46.5c-23.1-7.6-47.6-23.2-72.3-49.2c4,217.3,243.6,298.4,243.6,298.4
	C1196.2,1601.2,1473.8,1828,1505.1,2222.1L1505.1,2222.1L1505.1,2222.1z"/>
<path class="st0" d="M849.4,912.9c41.6-8.6,80.6-14,115.6-14c-1.9-22.3-1.3-49.6,13-75.1c6.4,29.6,22.2,57.3,55.3,70.5
	c62.8-13.6,95.6,31.3,109.8,87.8c53.5,55.5,114,32.3,120,130.4c80.1-38.6,132.8,106.2,205.3,86.5c-12.9,44.7-72.1,67.3-72.1,67.3
	c13.4-12.4,21.8-43.8,21.8-43.8c-116.6,50.7-183.1,4.7-164.2-74.1c0,0-59.8,41.9-72,126c0,0,42-23.4,84.1,45.8
	c53-12.1,82,61.6,85.5,111.5c12.5-10.9,20-21,25.6-33.7c19,36.1,16.6,66.7,52.4,106.2c-9.4-36.7-6.9-75.9,12.2-118.6
	c4,31.2,15.7,59.2,34.8,84.2c0.9-31.9,9.4-61.1,28.6-87c19.2,25.8,27.7,55,28.6,87c19.1-25,30.8-53,34.8-84.2
	c19.1,42.8,21.6,82,12.2,118.6c35.8-39.6,33.4-70.1,52.4-106.2c5.6,12.8,13.1,22.9,25.6,33.7c3.5-49.9,32.5-123.6,85.5-111.5
	c42-69.1,84.1-45.8,84.1-45.8c-12.1-84.1-72-126-72-126c18.9,78.8-47.6,124.7-164.2,74.1c0,0,8.4,31.4,21.8,43.8
	c0,0-59.2-22.6-72.1-67.3c72.6,19.6,125.2-125.1,205.3-86.5c5.9-98.2,66.4-75,120-130.5c14.3-56.5,47-101.4,109.8-87.8
	c33.1-13.2,48.9-40.9,55.3-70.5c14.3,25.5,14.9,52.8,13.1,75.1c35,0,74,5.4,115.6,14c15.7-21.5,28-45.5,33.6-71.7
	c9.5,22.9,14.9,57.4,10,81.6c38.3,9.3,74,19.5,114.6,31.4c16.5-20.5,28.1-43.9,33.9-69.7c8.2,25.6,13.6,56.2,5.9,81.4
	c34.4,10.2,69,20.6,103.1,30.1c15.2-25.3,24.1-49.5,28.6-72.1c11,23.3,16.7,55.8,14.9,82.6c249.4,47.7,414.5-158.4,255.4-362.9
	c-35.2-5.7-68-7.2-98.4-5.7c18.4-11.4,41.3-21.9,65.1-29.9c-35.9-34.2-78.5-64-123.1-91.8c-21.9,2.2-41.7,6.8-59.7,13.1
	c0,0,9.5-13,32.4-29.8c-40.8-24.5-82.4-47.7-121.3-71.5c-12.8,6.9-24.2,15.4-34.3,25c0,0,3.9-16.7,16.6-36
	c-29.2-18.4-56.6-37.3-80.5-57.4c-9.6,5-18.6,11.2-26.9,18c0,0,3.9-13.3,14.4-29c-24.8-22.7-45-47-58.5-74.1
	c-8.2,2.5-16,5.7-23.5,9.3c0,0,6.2-9.1,18.9-19.2c-18.8-43.7-20.4-94.6,3.3-156.7c-266.6,373.8,273.6,381.3,273.1,678.5
	c13.7,26.7,41.5,51.5,71.8,69.6c-340-35.3-574.7-331.4-888.6-7.9c-10.5,21.8-11.4,40.7-7.4,61.7c-28-22.8-31.4-51.5-23.7-73.4
	c-13.4-16.2-32.8-24-53.8-23.3c-2.1,10.6-5.8,18.7-13.4,28.2c1.1-59.6-29.6-118.6-92.4-137.6c44.3,71.5,28.3,162.5-22.2,226.6
	c7.3,54-23.6,99.1-23.6,99.1s-30.9-45.1-23.6-99.1c-50.6-64.1-66.6-155.2-22.2-226.6c-62.8,19-93.5,78-92.4,137.6
	c-7.5-9.5-11.3-17.7-13.4-28.2c-20.9-0.8-40.4,7.1-53.8,23.3c7.7,21.9,4.2,50.6-23.7,73.4c4-21,3.1-40-7.4-61.7
	c-313.8-323.5-548.6-27.5-888.6,7.9c30.3-18.1,58-42.9,71.8-69.6C451.4,489.3,991.6,481.9,725,108c23.7,62.1,22.1,113,3.3,156.7
	c12.7,10.1,18.9,19.2,18.9,19.2c-7.5-3.6-15.4-6.8-23.5-9.3c-13.6,27.1-33.8,51.5-58.5,74.1c10.5,15.7,14.4,29,14.4,29
	c-8.3-6.8-17.2-13-26.8-18c-23.9,20.1-51.2,39-80.5,57.4c12.6,19.2,16.6,36,16.6,36c-10.1-9.6-21.4-18.1-34.3-25
	c-38.9,23.8-80.5,47-121.3,71.5c22.9,16.8,32.4,29.8,32.4,29.8c-18-6.3-37.9-10.9-59.7-13.1c-44.5,27.8-87.2,57.6-123,91.8
	c23.8,8,46.6,18.5,65,29.9c-30.4-1.5-63.2,0-98.4,5.7c-159.1,204.5,6,410.6,255.4,362.9c-1.9-26.8,3.9-59.3,14.9-82.6
	c4.5,22.5,13.3,46.8,28.6,72.1c34.1-9.5,68.7-19.8,103.1-30.1c-7.7-25.2-2.3-55.8,5.9-81.4c5.8,25.7,17.4,49.1,33.9,69.7
	c40.6-11.9,76.3-22.2,114.6-31.4c-4.9-24.2,0.4-58.7,10-81.6C821.5,867.4,833.8,891.4,849.4,912.9L849.4,912.9L849.4,912.9z"/>
<path class="st0" d="M2285.3,108c-266.6,373.8,273.6,381.3,273.1,678.5c12.7,24.7,37.3,47.8,64.9,65.4
	c59.1,17.5,99.7,23.2,99.7,23.2c44.9-193.1-144.5-311.9-281.2-403.7C2305.8,380,2180.3,297.8,2285.3,108L2285.3,108L2285.3,108z"/>
<path class="st0" d="M725,108c266.6,373.8-273.6,381.3-273.1,678.5c-12.7,24.7-37.4,47.8-65,65.4c-59.1,17.5-99.7,23.2-99.7,23.2
	C242.4,682,431.7,563.2,568.4,471.4C704.4,380,829.9,297.8,725,108L725,108L725,108z"/>
<path class="st0" d="M1580.7,1504.2c35.8-39.6,33.4-70.1,52.4-106.2c5.6,12.8,13.1,22.9,25.6,33.7c3.5-49.9,32.5-123.6,85.5-111.5
	c-32.2-12.1-77.3-13.4-108.7,2c9.3,2.1,20.9,7.2,28.3,13.3C1568.8,1364.2,1617.1,1441.3,1580.7,1504.2L1580.7,1504.2L1580.7,1504.2z
	"/>
<path class="st0" d="M1429.5,1504.2c-35.8-39.6-33.4-70.1-52.4-106.2c-5.6,12.8-13.1,22.9-25.6,33.7
	c-3.5-49.9-32.5-123.6-85.5-111.5c32.2-12.1,77.3-13.4,108.7,2c-9.2,2.1-20.9,7.2-28.2,13.3
	C1441.4,1364.2,1393.2,1441.3,1429.5,1504.2L1429.5,1504.2z"/>
<path class="st0" d="M1828.2,1274.4c-12.1-84.1-72-126-72-126c18.9,78.8-47.6,124.7-164.2,74.1
	C1662.1,1306.6,1772.3,1231.6,1828.2,1274.4L1828.2,1274.4L1828.2,1274.4z"/>
<path class="st0" d="M1182,1274.4c12.2-84.1,72-126,72-126c-18.9,78.8,47.6,124.7,164.2,74.1
	C1348.1,1306.6,1237.9,1231.6,1182,1274.4L1182,1274.4L1182,1274.4z"/>
<path class="st1" d="M1550.9,703.9c44.3,71.5,28.3,162.5-22.2,226.6c7.3,54-23.6,99.1-23.6,99.1
	C1585.1,957.1,1657,787.5,1550.9,703.9L1550.9,703.9L1550.9,703.9z M1505.1,1029.6c0,0-30.9-45.1-23.6-99.1
	c-50.6-64.1-66.6-155.2-22.2-226.6C1353.2,787.5,1425.1,957.1,1505.1,1029.6L1505.1,1029.6L1505.1,1029.6z"/>
<path class="st0" d="M1747.1,1112.5c5.9-98.2,66.4-75,120-130.5c14.3-56.5,47-101.4,109.8-87.8c30.9-12.3,46.7-37.3,53.8-64.6
	C1867,815.5,1703,935.5,1747.1,1112.5L1747.1,1112.5L1747.1,1112.5z M2035.4,830.1c11.2,23.7,11.5,48.2,9.8,68.8
	c35,0,74,5.4,115.6,14c11.4-15.7,21.1-32.7,27.6-50.9C2132.9,846.9,2080.8,834.7,2035.4,830.1L2035.4,830.1L2035.4,830.1z
	 M2202,865.7c4.3,19.2,5.8,40.5,2.4,57.1c38.3,9.3,74,19.5,114.6,31.4c11.6-14.4,20.7-30.2,27.1-47.2
	C2297.1,893.2,2248.5,878.5,2202,865.7L2202,865.7z M2359.7,910.8c3.5,18.7,4.3,38.2-0.9,55.2c34.4,10.2,69,20.6,103.1,30.1
	c11.2-18.6,19-36.7,24.1-53.9C2444.5,933.6,2402,922.6,2359.7,910.8L2359.7,910.8L2359.7,910.8z M2498.3,944.6
	c5.8,19.8,8.5,42.4,7.1,62c122.1,23.4,223.9-14.1,277.5-82.4C2709.5,969.3,2607.6,966,2498.3,944.6L2498.3,944.6z"/>
<path class="st0" d="M1263.2,1112.5c-5.9-98.2-66.4-75-120-130.5c-14.3-56.5-47-101.4-109.8-87.8c-30.9-12.3-46.7-37.3-53.9-64.6
	C1143.3,815.5,1307.3,935.5,1263.2,1112.5L1263.2,1112.5L1263.2,1112.5z M974.8,830.1c-11.1,23.7-11.5,48.2-9.8,68.8
	c-35,0-74,5.4-115.6,14c-11.5-15.7-21.1-32.7-27.6-50.9C877.4,846.9,929.5,834.7,974.8,830.1L974.8,830.1z M808.2,865.7
	c-4.3,19.2-5.8,40.5-2.4,57.1c-38.3,9.3-74,19.5-114.6,31.4c-11.6-14.4-20.7-30.2-27.1-47.2C713.2,893.2,761.8,878.5,808.2,865.7
	L808.2,865.7L808.2,865.7z M650.6,910.8c-3.6,18.7-4.3,38.2,0.8,55.2c-34.4,10.2-69,20.6-103.1,30.1c-11.2-18.6-19-36.7-24.1-53.9
	C565.7,933.6,608.3,922.6,650.6,910.8L650.6,910.8z M512,944.6c-5.8,19.8-8.5,42.4-7.1,62c-122.1,23.4-223.9-14.1-277.5-82.4
	C300.8,969.3,402.7,966,512,944.6L512,944.6z"/>
<path class="st0" d="M1505.1,1647.3c-12.2-25.6-20.4-63.3-15.5-91.7c0,0-23.3,25.8-32.7,69.4c0,0-26.8-57-12.9-98.6
	c0,0-26.3,14.9-33.7,45.1c-23.8-41.3-4.4-74.1-41.8-125.1c5.4,84-69.3,62-63.4,178.8c34.5-43.6,59.2-19.4,57,26
	c-2.2,44.3,5.1,84.5,52.3,123.3c-2.6-91.4,74.8,44.7,90.8,182.3c16-137.6,93.4-273.8,90.8-182.3c47.2-38.8,54.5-79.1,52.3-123.3
	c-2.2-45.4,22.5-69.6,57-26c5.9-116.9-68.9-94.9-63.4-178.8c-37.4,51-18,83.8-41.8,125.1c-7.4-30.2-33.7-45.1-33.7-45.1
	c13.9,41.6-12.9,98.6-12.9,98.6c-9.4-43.6-32.7-69.4-32.7-69.4C1525.5,1584,1517.4,1621.8,1505.1,1647.3L1505.1,1647.3
	L1505.1,1647.3z"/>
<path class="st0" d="M1505.1,1739.4c-17.8-38.2-29.7-94.6-22.7-136.9c0,0-54.8,128.7,22.7,254.2c77.4-125.5,22.7-254.2,22.7-254.2
	C1534.8,1644.8,1522.9,1701.2,1505.1,1739.4z"/>
<path class="st0" d="M1368.5,1446.4c5.4,84-69.3,62-63.4,178.8c34.5-43.6,59.2-19.4,57,26c-2.2,44.3,5.1,84.5,52.3,123.3
	c-42.9-54.8,8.6-123.4-25.1-173.9C1349.4,1541,1392.4,1491.5,1368.5,1446.4L1368.5,1446.4L1368.5,1446.4z M1595.9,1774.6
	c47.2-38.8,54.5-79.1,52.3-123.3c-2.2-45.4,22.5-69.6,57-26c5.9-116.9-68.9-94.9-63.4-178.8c-23.9,45.1,19.1,94.6-20.7,154.3
	C1587.3,1651.2,1638.8,1719.8,1595.9,1774.6L1595.9,1774.6z"/>
<path class="st0" d="M2630.2,856.1c-30.3-18.1-58.1-42.9-71.8-69.6c0.5-297.1-539.7-304.6-273.1-678.5c-27.1,51-62.1,131.7-57,190.4
	c5.8-0.9,10.4-0.2,16.1,0.8c-4.6,3.5-7.4,6.4-11.8,11.4c8.9,36.1,27,63.9,55.3,88.2c0,0,12.2-6.1,30-8.4
	c-6.6,7.2-11.9,13.5-17.6,22.4c31.7,29.8,43.1,41.1,78.7,66.9c7.6-7,23.9-12.3,33.1-13.7c-6,8.4-11.1,17.6-15.5,25.7
	c29.2,20.2,52.4,30,79,54.7c29.4-14.6,55.9-8.5,55.9-8.5c-11.9,7.7-21.7,15.8-32.7,27.9c27.2,17.9,52.4,39.7,70.6,68
	c30.7-2.8,59.5,12.3,59.5,12.3c-14.2,3.8-26.5,8.4-42,15.6c17.5,32.6,31.1,92.2,29,132.7c21.8,34.6,69.2,66.1,107,80.8
	c-69.6,20-121.5,11-205.5-9.5c-4.5,12.9-12,23-23.4,30.6c1.3-14-0.2-26-1.4-36.9c-33.2-8.8-82.5-18.8-116.1-29.3
	c-4.1,11.7-9.7,21-20,29.9c0.6-12.1,0.5-24.3-0.4-36.4c-43.9-13.8-86.3-34.2-133.5-45c-5,12.2-14.6,24.8-24.9,33.6
	c0.1-14.5-1.8-27.5-5.2-41.5c-50.6-12.6-107-21.1-159.5-20.8c2.6,10.7-0.1,29.3-4.9,40.2c-5.7-14.7-15.1-30.8-27.8-38.5
	c-91.8,3.7-221.7,80.4-266.3,158.5c-4-21-3.1-40,7.4-61.7C2055.4,524.7,2290.2,820.7,2630.2,856.1L2630.2,856.1L2630.2,856.1z"/>
<path class="st0" d="M380.1,856.1c30.3-18.1,58-42.9,71.8-69.6C451.3,489.3,991.6,481.9,725,108c27.1,51,62.1,131.7,57,190.4
	c-5.8-0.9-10.4-0.2-16.1,0.8c4.6,3.5,7.3,6.4,11.8,11.4c-8.9,36.1-27,63.9-55.3,88.2c0,0-12.2-6.1-30-8.4
	c6.5,7.2,11.9,13.5,17.6,22.4c-31.8,29.8-43.1,41.1-78.7,66.9c-7.6-7-23.9-12.3-33.1-13.7c6,8.4,11.1,17.6,15.5,25.7
	c-29.2,20.2-52.4,30-79,54.7c-29.4-14.6-55.9-8.5-55.9-8.5c11.9,7.7,21.7,15.8,32.7,27.9c-27.2,17.9-52.4,39.7-70.6,68
	c-30.7-2.8-59.5,12.3-59.5,12.3c14.2,3.8,26.5,8.4,41.9,15.6c-17.5,32.6-31.1,92.2-29,132.7c-21.8,34.6-69.2,66.1-107.1,80.8
	c69.6,20,121.5,11,205.5-9.5c4.5,12.9,12,23,23.4,30.6c-1.3-14,0.2-26,1.4-36.9c33.2-8.8,82.5-18.8,116-29.3
	c4.2,11.7,9.7,21,20,29.9c-0.5-12.1-0.5-24.3,0.5-36.4c43.9-13.8,86.3-34.2,133.5-45c5,12.2,14.6,24.8,24.9,33.6
	c-0.1-14.5,1.8-27.5,5.2-41.5c50.6-12.6,107-21.1,159.5-20.8c-2.6,10.7,0.1,29.3,4.9,40.2c5.7-14.7,15.1-30.8,27.9-38.5
	c91.8,3.7,221.7,80.4,266.3,158.5c4-21,3.1-40-7.4-61.7C954.8,524.7,720,820.7,380.1,856.1L380.1,856.1L380.1,856.1z"/>
<path class="st1" d="M1373.1,1629c18.8,40.3-11.2,81.2,31,113.4C1388.6,1701.7,1441.3,1664.1,1373.1,1629L1373.1,1629z M1637.1,1629
	c-18.8,40.3,11.2,81.2-31.1,113.4C1621.7,1701.7,1568.9,1664.1,1637.1,1629L1637.1,1629z M1505.1,1729.6
	c31.5-21.9,37.9-38.4,35.1-74.2c68.9,86.8-35.1,84.7-35.1,181.6c0-96.9-103.9-94.8-35.1-181.6
	C1467.2,1691.2,1473.6,1707.7,1505.1,1729.6z"/>
<g>
	<path class="st0" d="M1528.8,1165.1c85.9-13.1,84.9-95.8,148.6-126.7c-3.2-34.1-0.4-82.7,12.7-114.3
		C1566.3,987.4,1594.4,1129.9,1528.8,1165.1L1528.8,1165.1z"/>
	<path class="st0" d="M1481.5,1165.1c-85.9-13.1-84.9-95.8-148.6-126.7c3.2-34.1,0.4-82.7-12.7-114.3
		C1443.9,987.4,1415.8,1129.9,1481.5,1165.1L1481.5,1165.1z"/>
</g>
<path class="st1" d="M1505.1,1230.6c0,0-19.6,34.1-63.4,56.7c0,0-7.1,63.8,34.8,113.1c0,0,9.5-40.4,28.6-61.7
	c19.1,21.2,28.6,61.7,28.6,61.7c41.9-49.4,34.8-113.1,34.8-113.1C1524.7,1264.7,1505.1,1230.6,1505.1,1230.6z"/>
<path class="st0" d="M1505.1,1230.6c0,0-16.6,24.3-53.7,40.4c0,0-6,45.5,29.5,80.8c0,0,8-28.9,24.2-44.1
	c16.2,15.2,24.2,44.1,24.2,44.1c35.5-35.2,29.5-80.8,29.5-80.8C1521.7,1254.9,1505.1,1230.6,1505.1,1230.6L1505.1,1230.6
	L1505.1,1230.6z"/>
<path class="st1" d="M1557,2055.9c9.9-51.8,36.2-91.1,36.2-91.1s-6.2,16-3,36.3C1593.3,2021.3,1575.1,2010.3,1557,2055.9z"/>
<path class="st1" d="M1453.3,2055.9c-9.9-51.8-36.2-91.1-36.2-91.1s6.2,16,3,36.3C1416.9,2021.3,1435.2,2010.3,1453.3,2055.9
	L1453.3,2055.9z"/>
<path class="st1" d="M2004.5,1705.7c14.2-18.2,20.6-45.6,20.1-65.2C2051.4,1645.8,2048.3,1679.3,2004.5,1705.7z"/>
<path class="st1" d="M1005.7,1705.7c-14.2-18.2-20.6-45.6-20.1-65.2C958.8,1645.8,962,1679.3,1005.7,1705.7z"/>
<path class="st1" d="M1784.2,1426.1c34.6-26.3,73.9-59.2,140.6-40.3c0,0-13.6-8.8-32.9-24.6c-19.4-15.8-44.3-16.2-49.9,1.8
	C1836.4,1381,1811,1398,1784.2,1426.1L1784.2,1426.1z"/>
<path class="st1" d="M1939.7,1387.9c34.3,21.8,65.6-6.5,65.6-6.5C1973.3,1393.1,1962.4,1370.7,1939.7,1387.9z"/>
<path class="st1" d="M1070.5,1387.9c-34.3,21.8-65.6-6.5-65.6-6.5C1036.9,1393.1,1047.8,1370.7,1070.5,1387.9z"/>
<path class="st1" d="M1822.1,1884.7c33.9-22.1,94.8,2.2,120.7-22.1C1890.8,1880.9,1869.7,1811.4,1822.1,1884.7z"/>
<path class="st1" d="M1188.1,1884.7c-33.9-22.1-94.8,2.2-120.7-22.1C1119.4,1880.9,1140.5,1811.4,1188.1,1884.7z"/>
<path class="st1" d="M1966.2,1855c14.2,1.6,51.2-0.6,65.6-23.9c-17.9,4.4-39.1-1.1-54.1-5.3
	C1949.6,1817.8,1945.6,1852.7,1966.2,1855L1966.2,1855L1966.2,1855z"/>
<path class="st1" d="M1044,1855c-14.2,1.6-51.2-0.6-65.6-23.9c17.9,4.4,39-1.1,54.1-5.3C1060.7,1817.8,1064.6,1852.7,1044,1855
	L1044,1855L1044,1855z"/>
<path class="st1" d="M2869.9,641c12.5,51.5,42.5,68.2,40.8,122.3c23.4-19.2,45.1-54.4,30.1-84.7c-3.6,18.4-18.4,19.6-33.6,5.1
	C2893.2,670.4,2880.6,656.8,2869.9,641L2869.9,641L2869.9,641z"/>
<path class="st1" d="M140.4,641c-12.5,51.5-42.5,68.2-40.7,122.3c-23.4-19.2-45.1-54.4-30.1-84.7c3.6,18.4,18.4,19.6,33.6,5.1
	C117,670.4,129.6,656.8,140.4,641L140.4,641L140.4,641z"/>
</svg>
