<?xml version="1.0" encoding="UTF-8"?>
<svg id="Layer_2" data-name="Layer 2" xmlns="http://www.w3.org/2000/svg" viewBox="0 0 3011.86 2261.6">
  <defs>
    <style>
      .cls-1 {
        fill: #e9a321;
      }

      .cls-1, .cls-2, .cls-3, .cls-4 {
        fill-rule: evenodd;
      }

      .cls-2 {
        fill: #a50f3c;
      }

      .cls-4 {
        fill: #eb0545;
      }
    </style>
  </defs>
  <g id="Layer_1-2" data-name="Layer 1">
    <g>
      <path class="cls-4" d="M2088.25,1475.24c-5.76-32.29-37.89-56.15-9.3-67.46,28.93-11.41,77.08-.21,98.88-40.19-28.67,2.7-37.6-26.45-9.62-42.96,22.38-13.24,46.06-15.83,55.28-45.87-9.46-1.14-6.61-19.21-.95-43.49,6.84-22.88,11.36-47.67,13.71-74.17-38.45,37.81-92.03,62.73-146.41,63.63-100.44,1.61-108.94-110.19,61.33-125.04,113.07-9.86,214.48,8.43,323.53,24.44,117.74,17.31,222.14,68.65,343.05-54.01,65.56-66.51,95.36-49.65,137.03-61.88,54.96-16.17,70.74-78.9,45.13-149.53-28.54,47.88-79.8,25.71-71.4-27.16,9.41-59.35,89.58-195.56-6.84-213.37-67.7-12.52-157.54-102.65-217.17-141.79-67.54-44.31-147.73-79.56-211.18-115.55-193.39-109.71-222.7-200.29-146.91-360.84-60.19,28.33-97.74,70.95-146.07,113.89-15.85,14.11-33.61,8.06-31.68-18.97-47.27,48.75,13.63,61.28-43.33,150.8-29.44,46.24,5.79,116.71,22.83,161.76,21.51,56.86-28.59,67.33-57.31,29.81-.21,71.26,41.7,102.15,101.02,115.02,90.45,19.63,68.67,93.04,8.22,76.68-184.88-50.05-333.91-14.32-473.51,106.99-7.98-3.7-16.28-6.69-24.76-8.98-59.27-54.49-116.79-66.93-181.71-67.93,23.31,39.03,20.08,102.44-14.96,134.05-35.04-31.6-38.26-95.02-14.96-134.05-64.92,1-122.45,13.45-181.71,67.93-8.51,2.3-16.78,5.28-24.76,8.98-139.62-121.31-288.62-157.03-473.53-106.99-60.43,16.36-82.2-57.05,8.24-76.68,59.32-12.87,101.23-43.76,100.99-115.02-28.7,37.52-78.82,27.06-57.29-29.81,17.04-45.05,52.27-115.52,22.83-161.76-56.97-89.52,3.94-102.05-43.33-150.8,1.93,27.03-15.83,33.08-31.71,18.97-48.3-42.94-85.85-85.56-146.04-113.89,75.76,160.55,46.45,251.13-146.91,360.84-63.47,35.99-136.29,71.24-203.8,115.55-61.83,40.53-158.57,129.58-224.55,141.79-96.42,17.81-16.25,154.02-6.84,213.37,8.4,52.87-42.86,75.04-71.42,27.16-25.58,70.63-2.11,128.74,52.85,144.91,41.67,12.26,71.48-4.62,137.03,61.88,120.91,122.68,217.62,75.94,335.37,58.63,109.05-16.04,210.46-34.3,323.53-24.44,170.27,14.85,161.74,126.65,61.3,125.04-54.35-.9-107.94-25.82-146.41-63.63,2.38,26.5,6.9,51.29,13.74,74.17,5.63,24.28,8.48,42.36-.95,43.49,9.22,30.04,32.9,32.63,55.28,45.87,27.96,16.51,19.05,45.66-9.62,42.96,21.8,39.98,69.94,28.78,98.85,40.19,28.62,11.31-3.51,35.17-9.27,67.46,59.21-6.69,155.55-10.81,210.57,18.73,73.03,39.19,27.98,127.65-36.07,110.03-49.2-13.56-90.69-57.95-112.85-102.18-34.3,51,3.14,99.11-31.31,146.81-27.48,38,32.55,68.96,57.6,104.9,25.82,36.99,1.11,75.81-45.47,64.45,14.69,114.76,210.36,49.07,338.67,124.16-22.43-71.13-12.05-100.81,12.6-95.02-18.81,15.11-7.32,44.13,16.54,51.21-5.63-15.01,22.51-23.38,44.92,3.94,37.02,48.41-.08,58.63,16.22,108.39,9.41,28.64-6.08,63.34-36.28,51.97,18.89,44.23,93.96-5.07,117.29,72.85,11.65,43.23,21.56,86.35,30.68,126.12,9.12-39.77,19.02-82.89,30.68-126.12,23.33-77.92,98.4-28.62,117.29-72.85-30.2,11.36-45.69-23.33-36.31-51.97,16.33-49.76-20.77-59.98,16.25-108.39,22.41-27.32,50.55-18.95,44.92-3.94,23.86-7.08,35.33-36.09,16.54-51.21,24.65-5.79,35.04,23.89,12.58,95.02,128.34-75.1,324-9.41,338.69-124.16-46.58,11.36-71.29-27.45-45.5-64.45,25.08-35.94,85.11-66.9,57.63-104.9-34.46-47.69,2.99-95.81-31.31-146.81-22.17,44.23-63.65,88.62-112.85,102.18-64.08,17.62-109.1-70.84-36.09-110.03,55.04-29.54,151.38-25.42,210.59-18.73h0Z"/>
      <path class="cls-1" d="M1896.52,1401.21c70.39,5.71,107.12,16.73,163.98,55.36-55.91-15.7-141-22.88-194.58-.42l30.6-54.93h0Z"/>
      <path class="cls-1" d="M1113.76,1401.21c-70.42,5.71-107.12,16.73-163.98,55.36,55.91-15.7,140.97-22.88,194.56-.42l-30.57-54.93h0Z"/>
      <path class="cls-1" d="M1868.88,1120.8s4.1,64.9,112.51,84.4c0,0-82.71,1.82-137.93-41.64-55.2-43.47-43.89-69.55-43.89-69.55,0,0,62.15-8.69,69.31,26.79Z"/>
      <path class="cls-1" d="M1141.39,1120.8s-4.1,64.9-112.54,84.4c0,0,82.73,1.82,137.93-41.64,55.22-43.47,43.92-69.55,43.92-69.55,0,0-62.17-8.69-69.31,26.79Z"/>
      <path class="cls-3" d="M1505.14,2222.1c31.29-394.08,308.92-620.87,253.82-339.22,0,0,239.69-81.09,243.65-298.4-24.68,26-49.25,41.59-72.32,49.23-8.11,26.93-27.9,39.4-51.61,46.48,31.5,41.96,2.56,104.77-66.67,109.23,61.01-53.72,2.8-146.94-10.38-229.28l.03.03c-9.75-58.16,37.13-126.78,186.73-125.35-176.14-104.29-196.62,67.78-290.84,27.74,19.24,0,42.75-8.93,49.68-28.51-16.14-13.53-24.12-35.72-6.79-52.45,19.08-18.39,47.54-2.91,43.23,18.1,16.91-8.88,25.16-21.3,31.21-32.34,15.14-27.64,36.78-42.46,59.4-34.96,27.43,9.09,42.22,31.31,77.92,35.62,115.47,8.46,206.71-46.24,253.66-152.62-124.08,64.18-322.66,48.57-373.6-110.05,9.41,14.61,27.69,33.29,45.45,37.12,17.2,3.73,11.12-3.78,17.89-9.46,10.17-8.53,35.04,16.12,15.46,26.85,10.89,6.71,24.15,10.23,37.49,9.04-11.04-31.29-12.26-71.69-.16-121.47,6.5,28.09,15.43,50.6,26.9,68.6,44.89-29.96,95.23-45.92,148.82-53.11,2.48-19.9,7.64-39.19,15.8-55.33.66,17.55,3.38,35.43,7.82,52.77,39.05-3.41,79.56-2.77,120.73.03,4.91-22.83,13.95-42.96,24.57-55.73-4.02,18.47-3.8,38.18-.71,57.55,44.58,3.78,89.71,9.59,134.36,14.96,2.8-16.28,8.67-31.89,18.52-45.77-.61,17.31.18,33.32,2.59,48.25,412.2,90.87,589.85-302.02,263.94-545.67-181-135.31-471.9-190.94-426.45-425.95-52.05,46.74-96.08,106.7-104.43,177.94-26.42,225.89,316.37,319.67,325.06,491.53-107.07-31.55-207-80.83-316.16-110.37-184.14-49.81-323.87-8.69-458.23,117.61-14.59-11.07-31.58-18.42-49.6-21.77,0,0-54.11-57.63-131.01-59.08,18.5,76.36-10.36,153.39-45.79,159.94-35.43-6.55-64.31-83.58-45.79-159.94-76.89,1.45-131.01,59.08-131.01,59.08-18.02,3.36-35.01,10.7-49.6,21.77-134.36-126.3-274.09-167.42-458.23-117.61-109.16,29.54-209.11,78.82-316.16,110.37,8.69-171.86,351.46-265.63,325.06-491.53-8.35-71.24-52.4-131.19-104.43-177.94,45.42,235.01-245.45,290.63-426.45,425.94-325.91,243.65-148.26,636.54,263.94,545.67,2.4-14.93,3.2-30.94,2.59-48.25,9.83,13.87,15.72,29.49,18.52,45.77,44.66-5.36,89.79-11.18,134.34-14.96,3.12-19.37,3.3-39.08-.71-57.55,10.65,12.76,19.69,32.9,24.6,55.73,41.17-2.8,81.67-3.44,120.73-.03,4.44-17.33,7.16-35.22,7.82-52.77,8.14,16.14,13.32,35.43,15.8,55.33,53.56,7.19,103.9,23.15,148.79,53.11,11.49-17.99,20.4-40.51,26.93-68.6,12.1,49.78,10.89,90.18-.16,121.47,13.34,1.19,26.58-2.33,37.5-9.04-19.58-10.73,5.26-35.38,15.46-26.85,6.76,5.68.66,13.19,17.89,9.46,17.76-3.83,36.04-22.51,45.45-37.12-50.94,158.62-249.52,174.24-373.63,110.05,46.98,106.38,138.22,161.08,253.69,152.62,35.67-4.31,50.5-26.53,77.92-35.62,22.62-7.5,44.26,7.32,59.4,34.96,6.05,11.04,14.27,23.46,31.18,32.34-4.28-21.01,24.18-36.49,43.26-18.1,17.33,16.73,9.35,38.92-6.79,52.45,6.92,19.58,30.44,28.51,49.68,28.51-94.25,40.03-114.7-132.04-290.84-27.74,149.61-1.43,196.48,67.19,186.73,125.35l.03-.03c-13.19,82.34-71.4,175.56-10.38,229.28-69.23-4.47-98.16-67.27-66.67-109.23-23.7-7.08-43.49-19.55-51.6-46.48-23.07-7.64-47.64-23.23-72.32-49.23,3.96,217.31,243.65,298.4,243.65,298.4-55.12-281.65,222.51-54.85,253.82,339.22h0Z"/>
      <path class="cls-4" d="M849.44,912.9c41.59-8.61,80.64-13.95,115.6-14-1.88-22.35-1.27-49.6,13.05-75.12,6.42,29.59,22.17,57.29,55.28,70.52,62.81-13.61,95.57,31.29,109.84,87.78,53.51,55.46,114.04,32.26,119.96,130.45,80.06-38.6,132.75,106.17,205.31,86.54-12.92,44.68-72.11,67.27-72.11,67.27,13.45-12.39,21.83-43.84,21.83-43.84-116.61,50.68-183.11,4.73-164.19-74.06,0,0-59.85,41.91-72,125.99,0,0,42.04-23.36,84.08,45.77,53.01-12.08,82.02,61.62,85.51,111.53,12.47-10.89,19.98-20.98,25.58-33.74,19,36.12,16.59,66.67,52.37,106.22-9.41-36.65-6.9-75.86,12.15-118.64,4.04,31.15,15.72,59.16,34.8,84.16.92-31.92,9.41-61.14,28.64-86.96,19.24,25.82,27.69,55.04,28.62,86.96,19.08-25,30.78-53.01,34.83-84.16,19.05,42.78,21.56,81.99,12.16,118.64,35.75-39.56,33.37-70.1,52.37-106.22,5.6,12.76,13.11,22.86,25.58,33.74,3.49-49.91,32.47-123.61,85.51-111.53,42.04-69.12,84.05-45.77,84.05-45.77-12.13-84.08-71.98-125.99-71.98-125.99,18.92,78.79-47.59,124.74-164.19,74.06,0,0,8.38,31.44,21.83,43.84,0,0-59.19-22.59-72.11-67.27,72.56,19.63,125.22-125.14,205.31-86.54,5.92-98.19,66.43-74.99,119.96-130.45,14.27-56.49,47.03-101.39,109.84-87.78,33.11-13.24,48.86-40.93,55.28-70.52,14.32,25.52,14.93,52.77,13.05,75.12,34.96.05,73.99,5.39,115.6,14,15.7-21.54,27.96-45.55,33.61-71.71,9.54,22.86,14.93,57.37,9.99,81.57,38.34,9.27,74.04,19.53,114.6,31.44,16.54-20.53,28.06-43.92,33.9-69.65,8.19,25.63,13.56,56.23,5.92,81.44,34.4,10.23,68.99,20.56,103.1,30.07,15.25-25.26,24.1-49.54,28.62-72.06,10.99,23.31,16.7,55.78,14.85,82.6,249.41,47.69,414.5-158.36,255.36-362.87-35.2-5.68-68.04-7.19-98.4-5.65,18.44-11.42,41.27-21.93,65.05-29.94-35.91-34.19-78.5-64-123.05-91.82-21.85,2.22-41.7,6.82-59.69,13.11,0,0,9.51-12.97,32.4-29.81-40.8-24.47-82.36-47.72-121.31-71.48-12.84,6.87-24.23,15.41-34.27,24.97,0,0,3.94-16.73,16.57-35.96-29.25-18.42-56.6-37.31-80.46-57.44-9.64,5.05-18.58,11.15-26.87,17.99,0,0,3.91-13.29,14.4-28.96-24.76-22.67-44.97-47.03-58.53-74.14-8.16,2.54-16.04,5.71-23.54,9.33,0,0,6.16-9.12,18.92-19.24-18.76-43.7-20.43-94.57,3.3-156.66-266.61,373.84,273.64,381.32,273.11,678.45,13.74,26.74,41.48,51.5,71.79,69.63-339.96-35.35-574.74-331.35-888.59-7.9-10.54,21.77-11.39,40.69-7.43,61.73-27.96-22.78-31.44-51.53-23.7-73.4-13.37-16.22-32.84-24.05-53.77-23.28-2.11,10.57-5.84,18.71-13.37,28.22,1.08-59.56-29.62-118.59-92.4-137.59,44.34,71.48,28.35,162.53-22.22,226.63,7.32,53.96-23.57,99.06-23.57,99.06,0,0-30.89-45.1-23.57-99.06-50.57-64.1-66.56-155.16-22.22-226.63-62.81,19-93.49,78.03-92.4,137.59-7.53-9.51-11.26-17.65-13.37-28.22-20.93-.77-40.4,7.06-53.77,23.28,7.72,21.88,4.25,50.63-23.7,73.4,3.96-21.03,3.12-39.95-7.45-61.73-313.83-323.45-548.63-27.45-888.57,7.9,30.31-18.13,58.05-42.89,71.79-69.63-.53-297.13,539.7-304.61,273.11-678.45,23.7,62.09,22.06,112.96,3.3,156.66,12.74,10.12,18.92,19.24,18.92,19.24-7.5-3.62-15.38-6.79-23.54-9.33-13.56,27.11-33.77,51.47-58.53,74.14,10.49,15.67,14.37,28.96,14.37,28.96-8.27-6.84-17.23-12.95-26.85-17.99-23.86,20.13-51.23,39.03-80.46,57.44,12.63,19.24,16.57,35.96,16.57,35.96-10.07-9.57-21.43-18.1-34.3-24.97-38.92,23.75-80.51,47.01-121.28,71.48,22.86,16.83,32.4,29.81,32.4,29.81-17.99-6.29-37.86-10.89-59.69-13.11-44.55,27.82-87.17,57.63-123.05,91.82,23.78,8.01,46.61,18.52,65.05,29.94-30.36-1.53-63.2-.03-98.43,5.65-159.12,204.52,5.97,410.57,255.38,362.87-1.88-26.82,3.86-59.29,14.85-82.6,4.49,22.51,13.34,46.8,28.59,72.06,34.11-9.51,68.7-19.84,103.13-30.07-7.66-25.21-2.3-55.81,5.92-81.44,5.84,25.74,17.36,49.12,33.9,69.65,40.56-11.92,76.26-22.17,114.6-31.44-4.94-24.2.42-58.71,9.99-81.57,5.65,26.16,17.92,50.18,33.61,71.71h0Z"/>
      <path class="cls-2" d="M2285.29,108.02c-266.61,373.84,273.64,381.32,273.11,678.45,12.71,24.71,37.34,47.75,64.92,65.4,59.14,17.47,99.72,23.25,99.72,23.25,44.87-193.1-144.46-311.88-281.17-403.7-136.03-91.42-261.51-173.58-156.59-363.4h0Z"/>
      <path class="cls-2" d="M724.99,108.02c266.59,373.84-273.64,381.32-273.11,678.45-12.71,24.71-37.36,47.75-64.95,65.4-59.14,17.47-99.72,23.25-99.72,23.25-44.84-193.1,144.48-311.88,281.17-403.7,136.05-91.42,261.54-173.58,156.61-363.4h0Z"/>
      <path class="cls-2" d="M1580.74,1504.2c35.75-39.56,33.37-70.1,52.37-106.22,5.6,12.76,13.11,22.86,25.58,33.74,3.49-49.91,32.47-123.61,85.51-111.53-32.16-12.08-77.31-13.42-108.68,2.01,9.27,2.06,20.95,7.21,28.27,13.34-94.99,28.67-46.69,105.72-83.05,168.66h0Z"/>
      <path class="cls-2" d="M1429.54,1504.2c-35.78-39.56-33.37-70.1-52.37-106.22-5.6,12.76-13.11,22.86-25.58,33.74-3.49-49.91-32.5-123.61-85.51-111.53,32.16-12.08,77.32-13.42,108.65,2.01-9.25,2.06-20.93,7.21-28.25,13.34,94.97,28.67,46.69,105.72,83.05,168.66Z"/>
      <path class="cls-2" d="M1828.24,1274.43c-12.13-84.08-71.98-125.99-71.98-125.99,18.92,78.79-47.59,124.74-164.19,74.06,70.07,84.13,180.26,9.06,236.17,51.92h0Z"/>
      <path class="cls-2" d="M1182.01,1274.43c12.15-84.08,72-125.99,72-125.99-18.92,78.79,47.59,124.74,164.19,74.06-70.07,84.13-180.26,9.06-236.2,51.92h0Z"/>
      <path class="cls-1" d="M1550.93,703.87c44.34,71.48,28.35,162.53-22.22,226.63,7.32,53.96-23.57,99.06-23.57,99.06,79.98-72.45,151.88-242.06,45.79-325.69h0ZM1505.14,1029.56s-30.89-45.1-23.57-99.06c-50.57-64.1-66.56-155.16-22.22-226.63-106.12,83.63-34.19,253.24,45.79,325.69h0Z"/>
      <path class="cls-2" d="M1747.1,1112.53c5.92-98.19,66.43-74.99,119.96-130.45,14.27-56.49,47.03-101.39,109.84-87.78,30.89-12.34,46.66-37.28,53.85-64.61-163.77-14.22-327.76,105.77-283.66,282.84h0ZM2035.43,830.12c11.15,23.65,11.52,48.25,9.8,68.78,34.96.05,73.99,5.39,115.6,14,11.44-15.7,21.06-32.74,27.64-50.94-55.59-15.11-107.68-27.24-153.04-31.84h0ZM2202.06,865.68c4.31,19.18,5.76,40.53,2.38,57.07,38.34,9.27,74.04,19.53,114.6,31.44,11.57-14.37,20.69-30.15,27.14-47.17-49.07-13.85-97.71-28.48-144.11-41.35ZM2359.7,910.84c3.54,18.71,4.31,38.16-.85,55.15,34.4,10.23,68.99,20.56,103.1,30.07,11.23-18.6,19-36.68,24.1-53.88-41.56-8.59-84.05-19.58-126.36-31.34h0ZM2498.29,944.61c5.81,19.84,8.48,42.44,7.13,61.99,122.08,23.36,223.94-14.11,277.47-82.44-73.4,45.13-175.32,41.8-284.61,20.45Z"/>
      <path class="cls-2" d="M1263.18,1112.53c-5.92-98.19-66.45-74.99-119.96-130.45-14.27-56.49-47.03-101.39-109.84-87.78-30.89-12.34-46.66-37.28-53.88-64.61,163.8-14.22,327.78,105.77,283.68,282.84h0ZM974.82,830.12c-11.12,23.65-11.49,48.25-9.78,68.78-34.96.05-74.01,5.39-115.6,14-11.47-15.7-21.06-32.74-27.64-50.94,55.59-15.11,107.68-27.24,153.02-31.84h0ZM808.22,865.68c-4.31,19.18-5.76,40.53-2.38,57.07-38.34,9.27-74.04,19.53-114.6,31.44-11.57-14.37-20.72-30.15-27.14-47.17,49.07-13.85,97.71-28.48,144.11-41.35h0ZM650.58,910.84c-3.57,18.71-4.31,38.16.85,55.15-34.43,10.23-69.02,20.56-103.13,30.07-11.23-18.6-18.97-36.68-24.1-53.88,41.56-8.59,84.08-19.58,126.38-31.34h0ZM511.99,944.61c-5.81,19.84-8.51,42.44-7.13,61.99-122.08,23.36-223.94-14.11-277.47-82.44,73.4,45.13,175.32,41.8,284.61,20.45Z"/>
      <path class="cls-4" d="M1505.14,1647.31c-12.21-25.55-20.37-63.34-15.54-91.66,0,0-23.31,25.76-32.71,69.36,0,0-26.77-57-12.89-98.61,0,0-26.26,14.88-33.69,45.1-23.83-41.3-4.44-74.12-41.83-125.09,5.42,83.97-69.33,61.96-63.44,178.83,34.46-43.55,59.24-19.37,57,26.03-2.19,44.26,5.13,84.5,52.29,123.34-2.56-91.42,74.78,44.68,90.82,182.32,16.04-137.64,93.38-273.75,90.79-182.32,47.19-38.84,54.49-79.09,52.32-123.34-2.25-45.4,22.51-69.57,56.99-26.03,5.89-116.87-68.86-94.86-63.44-178.83-37.39,50.97-17.99,83.79-41.83,125.09-7.43-30.23-33.69-45.1-33.69-45.1,13.87,41.62-12.89,98.61-12.89,98.61-9.41-43.6-32.71-69.36-32.71-69.36,4.84,28.33-3.33,66.11-15.54,91.66h0Z"/>
      <path class="cls-2" d="M1505.14,1739.4c-17.81-38.16-29.7-94.6-22.67-136.87,0,0-54.78,128.66,22.67,254.19,77.45-125.54,22.67-254.19,22.67-254.19,7.03,42.28-4.86,98.72-22.67,136.87Z"/>
      <path class="cls-2" d="M1368.48,1446.42c5.42,83.97-69.33,61.96-63.44,178.83,34.46-43.55,59.24-19.37,57,26.03-2.19,44.26,5.13,84.5,52.29,123.34-42.89-54.85,8.64-123.37-25.13-173.95-39.82-59.66,3.2-109.18-20.72-154.26h0ZM1595.93,1774.62c47.19-38.84,54.49-79.09,52.32-123.34-2.25-45.4,22.51-69.57,56.99-26.03,5.89-116.87-68.86-94.86-63.44-178.83-23.91,45.08,19.1,94.6-20.72,154.26-33.77,50.57,17.76,119.09-25.16,173.95Z"/>
      <path class="cls-1" d="M2630.19,856.09c-30.31-18.13-58.05-42.89-71.79-69.63.53-297.13-539.72-304.61-273.11-678.45-27.08,51.02-62.12,131.69-56.97,190.41,5.81-.9,10.38-.24,16.14.77-4.57,3.49-7.35,6.42-11.81,11.41,8.88,36.12,27,63.92,55.3,88.15,0,0,12.23-6.1,30.02-8.43-6.58,7.16-11.89,13.5-17.57,22.38,31.73,29.83,43.1,41.11,78.72,66.88,7.58-7.05,23.91-12.31,33.08-13.69-5.97,8.4-11.1,17.6-15.54,25.74,29.17,20.21,52.42,30.04,79.03,54.67,29.36-14.56,55.91-8.46,55.91-8.46-11.86,7.69-21.69,15.8-32.74,27.93,27.24,17.86,52.4,39.74,70.55,68.01,30.68-2.8,59.51,12.34,59.51,12.34-14.16,3.75-26.53,8.43-41.96,15.56,17.47,32.63,31.15,92.22,29.04,132.67,21.77,34.59,69.2,66.06,107.04,80.75-69.6,20-121.49,10.99-205.47-9.54-4.49,12.87-12.02,23.04-23.44,30.6,1.32-14.03-.24-25.97-1.35-36.94-33.19-8.8-82.52-18.84-116.05-29.3-4.15,11.65-9.72,20.98-20.03,29.88.58-12.13.5-24.31-.45-36.41-43.89-13.85-86.3-34.24-133.52-45.03-4.97,12.15-14.56,24.81-24.86,33.61.13-14.45-1.82-27.45-5.18-41.48-50.6-12.58-107.04-21.06-159.49-20.77,2.64,10.65-.08,29.3-4.91,40.22-5.71-14.69-15.09-30.78-27.85-38.55-91.77,3.67-221.69,80.41-266.27,158.51-3.96-21.03-3.12-39.95,7.42-61.73,313.86-323.45,548.63-27.45,888.59,7.9h0Z"/>
      <path class="cls-1" d="M380.08,856.09c30.31-18.13,58.05-42.89,71.79-69.63-.53-297.13,539.7-304.61,273.11-678.45,27.08,51.02,62.12,131.69,56.97,190.41-5.81-.9-10.38-.24-16.14.77,4.57,3.49,7.35,6.42,11.81,11.41-8.88,36.12-27.03,63.92-55.3,88.15,0,0-12.23-6.1-30.02-8.43,6.55,7.16,11.86,13.5,17.57,22.38-31.76,29.83-43.1,41.11-78.72,66.88-7.58-7.05-23.91-12.31-33.11-13.69,6,8.4,11.12,17.6,15.54,25.74-29.17,20.21-52.4,30.04-79.01,54.67-29.36-14.56-55.91-8.46-55.91-8.46,11.86,7.69,21.69,15.8,32.74,27.93-27.24,17.86-52.4,39.74-70.55,68.01-30.68-2.8-59.51,12.34-59.51,12.34,14.16,3.75,26.53,8.43,41.93,15.56-17.47,32.63-31.13,92.22-29.01,132.67-21.77,34.59-69.23,66.06-107.07,80.75,69.63,20,121.52,10.99,205.49-9.54,4.49,12.87,12.02,23.04,23.41,30.6-1.32-14.03.24-25.97,1.37-36.94,33.16-8.8,82.52-18.84,116.05-29.3,4.15,11.65,9.72,20.98,20,29.88-.55-12.13-.48-24.31.48-36.41,43.89-13.85,86.3-34.24,133.52-45.03,4.97,12.15,14.56,24.81,24.86,33.61-.13-14.45,1.82-27.45,5.18-41.48,50.57-12.58,107.01-21.06,159.49-20.77-2.64,10.65.08,29.3,4.89,40.22,5.73-14.69,15.11-30.78,27.88-38.55,91.77,3.67,221.69,80.41,266.27,158.51,3.96-21.03,3.12-39.95-7.45-61.73-313.83-323.45-548.63-27.45-888.57,7.9h0Z"/>
      <path class="cls-1" d="M1373.13,1628.98c18.84,40.32-11.18,81.23,31.02,113.44-15.56-40.69,37.18-78.27-31.02-113.44h0ZM1637.15,1628.98c-18.84,40.32,11.15,81.23-31.05,113.44,15.59-40.69-37.18-78.27,31.05-113.44h0ZM1505.14,1729.62c31.47-21.93,37.94-38.37,35.06-74.17,68.89,86.75-35.06,84.66-35.06,181.58,0-96.92-103.95-94.83-35.06-181.58-2.88,35.8,3.57,52.24,35.06,74.17Z"/>
      <g>
        <path class="cls-2" d="M1528.79,1165.06c85.88-13.13,84.87-95.84,148.61-126.73-3.17-34.06-.4-82.65,12.68-114.28-123.74,63.36-95.65,205.89-161.29,241.01h0Z"/>
        <path class="cls-2" d="M1481.49,1165.06c-85.9-13.13-84.9-95.84-148.61-126.73,3.17-34.06.37-82.65-12.71-114.28,123.74,63.36,95.68,205.89,161.31,241.01Z"/>
      </g>
      <path class="cls-2" d="M1505.14,1230.62s-19.55,34.06-63.39,56.7c0,0-7.08,63.76,34.8,113.12,0,0,9.46-40.45,28.59-61.7,19.13,21.24,28.56,61.7,28.56,61.7,41.91-49.36,34.83-113.12,34.83-113.12-43.84-22.64-63.39-56.7-63.39-56.7Z"/>
      <path class="cls-3" d="M1505.14,1230.62s-16.57,24.31-53.69,40.45c0,0-6,45.5,29.49,80.75,0,0,8.01-28.88,24.2-44.05,16.2,15.17,24.2,44.05,24.2,44.05,35.49-35.25,29.46-80.75,29.46-80.75-37.1-16.14-53.67-40.45-53.67-40.45h0Z"/>
      <path class="cls-1" d="M1556.98,2055.85c9.91-51.82,36.25-91.11,36.25-91.11,0,0-6.16,16.04-3.01,36.28,3.12,20.24-15.11,9.27-33.24,54.83Z"/>
      <path class="cls-1" d="M1453.3,2055.85c-9.94-51.82-36.25-91.11-36.25-91.11,0,0,6.16,16.04,3.01,36.28-3.14,20.24,15.11,9.27,33.24,54.83h0Z"/>
      <path class="cls-1" d="M2004.51,1705.66c14.16-18.18,20.56-45.61,20.08-65.24,26.85,5.36,23.68,38.92-20.08,65.24Z"/>
      <path class="cls-1" d="M1005.76,1705.66c-14.19-18.18-20.56-45.61-20.08-65.24-26.85,5.36-23.68,38.92,20.08,65.24Z"/>
      <path class="cls-1" d="M1784.22,1426.07c34.61-26.29,73.93-59.21,140.63-40.32,0,0-13.58-8.77-32.95-24.55-19.37-15.77-44.34-16.17-49.94,1.8-5.58,17.97-30.94,34.96-57.74,63.07Z"/>
      <path class="cls-1" d="M1939.72,1387.89c34.3,21.8,65.64-6.47,65.64-6.47-32.03,11.68-42.94-10.68-65.64,6.47Z"/>
      <path class="cls-1" d="M1070.55,1387.89c-34.32,21.8-65.64-6.47-65.64-6.47,32.02,11.68,42.94-10.68,65.64,6.47Z"/>
      <path class="cls-1" d="M1822.14,1884.73c33.93-22.09,94.81,2.17,120.68-22.09-51.98,18.28-73.06-51.24-120.68,22.09Z"/>
      <path class="cls-1" d="M1188.14,1884.73c-33.93-22.09-94.81,2.17-120.68-22.09,51.97,18.28,73.06-51.24,120.68,22.09Z"/>
      <path class="cls-1" d="M1966.25,1854.98c14.16,1.56,51.16-.61,65.61-23.94-17.89,4.41-39.08-1.11-54.12-5.34-28.14-7.87-32.1,27-11.49,29.28h0Z"/>
      <path class="cls-1" d="M1044.02,1854.98c-14.16,1.56-51.16-.61-65.61-23.94,17.89,4.41,39.05-1.11,54.12-5.34,28.14-7.87,32.08,27,11.49,29.28h0Z"/>
      <path class="cls-1" d="M2869.88,640.95c12.52,51.53,42.49,68.2,40.75,122.29,23.38-19.24,45.08-54.38,30.07-84.69-3.62,18.39-18.36,19.63-33.64,5.07-13.82-13.21-26.4-26.77-37.18-42.67h0Z"/>
      <path class="cls-1" d="M140.4,640.95c-12.52,51.53-42.49,68.2-40.74,122.29-23.38-19.24-45.08-54.38-30.07-84.69,3.59,18.39,18.36,19.63,33.64,5.07,13.82-13.21,26.37-26.77,37.18-42.67h0Z"/>
    </g>
  </g>
</svg>